<mxfile host="app.diagrams.net" modified="2021-08-03T09:37:19.295Z" agent="5.0 (Windows)" etag="008l_1Me0uCqVN66dpdo" version="14.9.3" type="github">
  <diagram id="ovF2lPuQ8nrgcaS8oNFD" name="Page-1">
    <mxGraphModel dx="1038" dy="508" grid="1" gridSize="10" guides="1" tooltips="1" connect="1" arrows="1" fold="1" page="1" pageScale="1" pageWidth="1169" pageHeight="827" math="0" shadow="0">
      <root>
        <mxCell id="0" />
        <mxCell id="1" parent="0" />
        <mxCell id="jfhz0b6t6lGrA5Lddit1-1" value="Induction" style="swimlane;" vertex="1" parent="1">
          <mxGeometry x="170" y="40" width="560" height="520" as="geometry" />
        </mxCell>
        <mxCell id="jfhz0b6t6lGrA5Lddit1-2" value="Start" style="rounded=1;whiteSpace=wrap;html=1;" vertex="1" parent="jfhz0b6t6lGrA5Lddit1-1">
          <mxGeometry x="245" y="40" width="90" height="60" as="geometry" />
        </mxCell>
        <mxCell id="jfhz0b6t6lGrA5Lddit1-7" value="" style="edgeStyle=orthogonalEdgeStyle;rounded=0;orthogonalLoop=1;jettySize=auto;html=1;" edge="1" parent="jfhz0b6t6lGrA5Lddit1-1" source="jfhz0b6t6lGrA5Lddit1-5" target="jfhz0b6t6lGrA5Lddit1-6">
          <mxGeometry relative="1" as="geometry" />
        </mxCell>
        <mxCell id="jfhz0b6t6lGrA5Lddit1-5" value="&lt;span lang=&quot;EN-GB&quot;&gt;HR prepares for the induction of new employees&lt;br&gt;&lt;/span&gt;" style="rounded=0;whiteSpace=wrap;html=1;" vertex="1" parent="jfhz0b6t6lGrA5Lddit1-1">
          <mxGeometry x="220" y="140" width="140" height="60" as="geometry" />
        </mxCell>
        <mxCell id="jfhz0b6t6lGrA5Lddit1-4" value="" style="edgeStyle=orthogonalEdgeStyle;rounded=0;orthogonalLoop=1;jettySize=auto;html=1;" edge="1" parent="jfhz0b6t6lGrA5Lddit1-1" source="jfhz0b6t6lGrA5Lddit1-2" target="jfhz0b6t6lGrA5Lddit1-5">
          <mxGeometry relative="1" as="geometry">
            <mxPoint x="290" y="180" as="targetPoint" />
          </mxGeometry>
        </mxCell>
        <mxCell id="jfhz0b6t6lGrA5Lddit1-9" value="" style="edgeStyle=orthogonalEdgeStyle;rounded=0;orthogonalLoop=1;jettySize=auto;html=1;" edge="1" parent="jfhz0b6t6lGrA5Lddit1-1" source="jfhz0b6t6lGrA5Lddit1-6" target="jfhz0b6t6lGrA5Lddit1-8">
          <mxGeometry relative="1" as="geometry" />
        </mxCell>
        <mxCell id="jfhz0b6t6lGrA5Lddit1-6" value="&lt;span lang=&quot;EN-GB&quot;&gt;HR conducts the induction and creates an induction report&lt;br&gt;&lt;/span&gt;" style="rounded=0;whiteSpace=wrap;html=1;" vertex="1" parent="jfhz0b6t6lGrA5Lddit1-1">
          <mxGeometry x="220" y="240" width="140" height="60" as="geometry" />
        </mxCell>
        <mxCell id="jfhz0b6t6lGrA5Lddit1-11" value="" style="edgeStyle=orthogonalEdgeStyle;rounded=0;orthogonalLoop=1;jettySize=auto;html=1;entryX=0.5;entryY=0;entryDx=0;entryDy=0;" edge="1" parent="jfhz0b6t6lGrA5Lddit1-1" source="jfhz0b6t6lGrA5Lddit1-8" target="jfhz0b6t6lGrA5Lddit1-12">
          <mxGeometry relative="1" as="geometry">
            <mxPoint x="290" y="590" as="targetPoint" />
          </mxGeometry>
        </mxCell>
        <mxCell id="jfhz0b6t6lGrA5Lddit1-8" value="&lt;span lang=&quot;EN-GB&quot;&gt;HR &lt;/span&gt;&lt;br&gt;&lt;span lang=&quot;EN-GB&quot;&gt;&lt;span lang=&quot;EN-GB&quot;&gt;uploads induction report in the system&lt;br&gt;&lt;/span&gt;&lt;/span&gt;" style="rounded=0;whiteSpace=wrap;html=1;" vertex="1" parent="jfhz0b6t6lGrA5Lddit1-1">
          <mxGeometry x="220" y="344" width="140" height="60" as="geometry" />
        </mxCell>
        <mxCell id="jfhz0b6t6lGrA5Lddit1-12" value="End" style="rounded=1;whiteSpace=wrap;html=1;" vertex="1" parent="jfhz0b6t6lGrA5Lddit1-1">
          <mxGeometry x="245" y="440" width="90" height="60" as="geometry" />
        </mxCell>
      </root>
    </mxGraphModel>
  </diagram>
</mxfile>
